<svg xmlns="http://www.w3.org/2000/svg" width="26" height="26" viewBox="0 0 26 26"><g transform="translate(-253.888 -3613.62)"><circle cx="12.5" cy="12.5" r="12.5" transform="translate(254.388 3614.12)" fill="#00c420"/><path d="M266.888,3639.62a13,13,0,1,1,13-13A13.014,13.014,0,0,1,266.888,3639.62Zm0-25a12,12,0,1,0,12,12A12.013,12.013,0,0,0,266.888,3614.62Z" fill="#fff"/><path d="M264.955,3630.786a.9.9,0,0,1-.594-.222l-2.433-2.122a.9.9,0,1,1,1.188-1.363l1.786,1.557,5.7-5.907a.9.9,0,0,1,1.3,1.256l-6.3,6.525A.9.9,0,0,1,264.955,3630.786Z" fill="#fff"/></g></svg>