<svg xmlns="http://www.w3.org/2000/svg" width="40" height="40" viewBox="0 0 40 40"><g transform="translate(-257 -534)"><circle cx="20" cy="20" r="20" transform="translate(257 534)" fill="#fff"/><path d="M287.44,549.3l-7.1-.658-2.82-6.548a.568.568,0,0,0-1.044,0l-2.82,6.548-7.1.658a.569.569,0,0,0-.323.994l5.356,4.7-1.568,6.955a.569.569,0,0,0,.846.614l6.129-3.64,6.129,3.64a.569.569,0,0,0,.846-.614L282.407,555l5.356-4.7A.569.569,0,0,0,287.44,549.3Z" fill="#005cb9"/><path d="M269.744,541.869c.362.5,1.383,2.661,1.967,3.919a.2.2,0,0,1-.315.227c-1.008-.953-2.731-2.607-3.093-3.109a.888.888,0,1,1,1.441-1.037Z" fill="#2bce46"/><path d="M284.256,541.869c-.362.5-1.383,2.661-1.967,3.919a.2.2,0,0,0,.315.227c1.008-.953,2.731-2.607,3.092-3.109a.887.887,0,1,0-1.44-1.037Z" fill="#2bce46"/><path d="M289.974,556.608c-.588-.192-2.955-.509-4.331-.684a.2.2,0,0,0-.12.369c1.214.671,3.312,1.81,3.9,2a.887.887,0,1,0,.55-1.687Z" fill="#00c420"/><path d="M264.026,556.608c.588-.192,2.955-.509,4.331-.684a.2.2,0,0,1,.12.369c-1.214.671-3.312,1.81-3.9,2a.887.887,0,1,1-.55-1.687Z" fill="#00c420"/><path d="M276.113,565.613c0-.62.432-2.968.693-4.33a.2.2,0,0,1,.388,0c.261,1.362.693,3.71.693,4.33a.887.887,0,1,1-1.774,0Z" fill="#2bce46"/><path d="M278.548,544.475l-1.026-2.381a.568.568,0,0,0-1.044,0l-2.82,6.548-7.1.658a.569.569,0,0,0-.323.994l5.356,4.7-1.568,6.955a.569.569,0,0,0,.846.614l.815-.485A44.17,44.17,0,0,1,278.548,544.475Z" fill="#0071c3"/></g></svg>