<svg xmlns="http://www.w3.org/2000/svg" width="40" height="40" viewBox="0 0 40 40"><g transform="translate(-257 -388)"><circle cx="20" cy="20" r="20" transform="translate(257 388)" fill="#fff"/><path d="M276.693,422.451a.991.991,0,0,0,.614,0c11.044-3.716,11.784-12.336,11.835-13.338.048-.939.007-7.531-.061-10.445a.905.905,0,0,0-.58-.828c-1.827-.714-7.678-2.994-11.188-4.283a.888.888,0,0,0-.626,0c-3.51,1.289-9.362,3.569-11.189,4.283a.9.9,0,0,0-.578.827c-.069,2.914-.11,9.507-.062,10.446C264.909,410.115,265.649,418.735,276.693,422.451Z" fill="#005cb9"/><path d="M276.738,420.342a.838.838,0,0,0,.524,0c9.433-3.174,10.064-10.535,10.108-11.392.041-.8.006-6.431-.052-8.92a.773.773,0,0,0-.495-.707c-1.561-.61-6.558-2.558-9.556-3.658a.756.756,0,0,0-.534,0c-3,1.1-8,3.048-9.556,3.658a.77.77,0,0,0-.494.706c-.059,2.489-.094,8.119-.053,8.921C266.674,409.807,267.3,417.168,276.738,420.342Z" fill="#f1f5fb"/><line y1="5.895" transform="translate(277 405.052)" fill="#f5fbf4"/><path d="M277,411.839a.891.891,0,0,1-.891-.891v-5.9a.891.891,0,0,1,1.782,0v5.9A.891.891,0,0,1,277,411.839Z" fill="#00c420"/><path d="M279.948,408.891h-5.9a.891.891,0,0,1,0-1.782h5.9a.891.891,0,0,1,0,1.782Z" fill="#00c420"/></g></svg>