<svg xmlns="http://www.w3.org/2000/svg" width="40" height="40" viewBox="0 0 40 40"><g transform="translate(-257 -459.797)"><circle cx="20" cy="20" r="20" transform="translate(257 459.797)" fill="#fff"/><path d="M283.834,494.327H270.123a3.387,3.387,0,0,1-3.388-3.387V468.715a3.388,3.388,0,0,1,3.388-3.388H282.4l1.429,4.1,3.392,1.441V490.94A3.387,3.387,0,0,1,283.834,494.327Z" fill="#e5ecf7"/><line x2="12.172" transform="translate(270.892 474.44)" fill="#f5fbf4"/><path d="M283.064,474.713H270.893a.274.274,0,1,1,0-.547h12.171a.274.274,0,1,1,0,.547Z" fill="#00c420"/><line x2="12.172" transform="translate(270.892 476.934)" fill="#f5fbf4"/><path d="M283.064,477.208H270.893a.274.274,0,1,1,0-.548h12.171a.274.274,0,1,1,0,.548Z" fill="#00c420"/><line x2="12.172" transform="translate(270.892 479.428)" fill="#f5fbf4"/><path d="M283.064,479.7H270.893a.273.273,0,1,1,0-.547h12.171a.273.273,0,1,1,0,.547Z" fill="#00c420"/><line x2="12.172" transform="translate(270.892 481.922)" fill="#f5fbf4"/><path d="M283.064,482.2H270.893a.274.274,0,1,1,0-.547h12.171a.274.274,0,1,1,0,.547Z" fill="#00c420"/><line x2="5.244" transform="translate(270.892 486.114)" fill="#f5fbf4"/><path d="M276.136,486.387h-5.243a.273.273,0,1,1,0-.547h5.243a.273.273,0,1,1,0,.547Z" fill="#00c420"/><line x2="5.244" transform="translate(270.892 488.154)" fill="#f5fbf4"/><path d="M276.136,488.427h-5.243a.273.273,0,1,1,0-.547h5.243a.273.273,0,1,1,0,.547Z" fill="#00c420"/><path d="M282.423,465.266l4.842,5.567-3.924-.239a1.138,1.138,0,0,1-1.069-1.178Z" fill="#f1f5fb"/></g></svg>