<svg xmlns="http://www.w3.org/2000/svg" xmlns:xlink="http://www.w3.org/1999/xlink" width="40" height="40" viewBox="0 0 40 40"><defs><clipPath id="a"><path d="M280.458,338.151c.953.211,5.908.892,5.675,9.212-.064,1.057-2.139,2.115-8.512,2.137s-10.079-.621-9.74-2.756c.4-2.75.529-8.084,5.971-8.593,1.3,2.2,1.761,5.121,3.148,5.675C278.567,342.611,280.352,338.322,280.458,338.151Z" fill="none"/></clipPath></defs><g transform="translate(-257 -315)"><circle cx="20" cy="20" r="20" transform="translate(257 315)" fill="#fff"/><circle cx="1.183" cy="1.183" r="1.183" transform="translate(281.787 328.093)" fill="#e5ecf7"/><circle cx="1.183" cy="1.183" r="1.183" transform="translate(269.994 328.093)" fill="#e5ecf7"/><path d="M271.136,323.723c0,1.936-.072,8.247,0,8.641a6.061,6.061,0,0,0,5.737,4.769,5.645,5.645,0,0,0,6.023-5.414v-8.964C282.789,321.93,272.462,319.743,271.136,323.723Z" fill="#e5ecf7"/><path d="M273.4,329.923a1.609,1.609,0,0,1,1.721,0" fill="#f1f5fb"/><path d="M273.4,330.124a.2.2,0,0,1-.1-.376,1.81,1.81,0,0,1,1.935.009.2.2,0,0,1,.051.281.2.2,0,0,1-.281.05,1.413,1.413,0,0,0-1.506.01A.2.2,0,0,1,273.4,330.124Z" fill="#005cb9"/><path d="M278.733,329.923a1.609,1.609,0,0,1,1.721,0" fill="#f1f5fb"/><path d="M278.733,330.124a.2.2,0,0,1-.1-.376,1.811,1.811,0,0,1,1.936.009.2.2,0,1,1-.23.331,1.413,1.413,0,0,0-1.506.01A.2.2,0,0,1,278.733,330.124Z" fill="#005cb9"/><path d="M278.277,333.345a2.252,2.252,0,0,1-2.407,0" fill="#f1f5fb"/><path d="M277.018,333.894a2.2,2.2,0,0,1-1.263-.384.2.2,0,0,1,.23-.331,2.055,2.055,0,0,0,2.192-.01.2.2,0,1,1,.2.351A2.762,2.762,0,0,1,277.018,333.894Z" fill="#005cb9"/><path d="M280.458,338.151c.953.211,5.908.892,5.675,9.212-.064,1.057-2.139,2.115-8.512,2.137s-10.079-.621-9.74-2.756c.4-2.75.529-8.084,5.971-8.593,1.3,2.2,1.761,5.121,3.148,5.675C278.567,342.611,280.352,338.322,280.458,338.151Z" fill="#f1f5fb"/><path d="M281.916,338.3l-1.452-.536a.446.446,0,0,0-.533.154l-2.571,3.833a.405.405,0,0,1-.72,0l-2.571-3.833a.443.443,0,0,0-.532-.154l-1.453.536c-.236.087-.286.318-.1.456l1.163.858-.647.715a.222.222,0,0,0-.024.285l4.193,3.887a.382.382,0,0,0,.662,0l4.193-3.887a.222.222,0,0,0-.024-.285l-.647-.716,1.163-.857c.186-.138.136-.369-.1-.456Zm0,0" fill="#6c9fd8"/><path d="M270.471,325.142c.1,1.741-.037,2.891.723,2.928a4.514,4.514,0,0,0,1.166-2.917c4.745,2.025,6.885-.281,8.31-1.644,0,0,.026-.916.106-1.761C274.662,318.713,270.265,321.748,270.471,325.142Z" fill="#005cb9"/><path d="M271.268,328.276l-.084-.005c-.8-.038-.829-.936-.873-2.178-.01-.288-.021-.6-.041-.939h0a4.32,4.32,0,0,1,2.049-3.841c2.155-1.428,5.35-1.332,8.547.255l.124.061-.013.138c-.079.828-.1,1.739-.106,1.748l0,.083-.214.206c-1.439,1.385-3.6,3.464-8.13,1.636a4.548,4.548,0,0,1-1.2,2.779Zm-.6-3.146c.02.34.032.658.042.949.039,1.114.075,1.689.411,1.778a4.563,4.563,0,0,0,1.035-2.728l.033-.266.246.1c4.452,1.9,6.549-.119,7.936-1.455l.1-.092c.008-.229.035-.9.092-1.553-3.023-1.464-6.015-1.548-8.021-.219a3.925,3.925,0,0,0-1.87,3.481Z" fill="#005cb9"/><path d="M280.74,321.9a2.091,2.091,0,0,1,2.817,2.22c-.117,2.2.047,3.645-.912,3.692C281.617,327.485,280.26,327.6,280.74,321.9Z" fill="#005cb9"/><path d="M282.619,328.015l-.035-.011c-.077-.025-.157-.047-.238-.069-1.061-.295-2.263-.628-1.806-6.052l.008-.106.093-.052a2.2,2.2,0,0,1,2.06.187,2.327,2.327,0,0,1,1.057,2.219c-.021.394-.033.764-.044,1.106-.053,1.643-.088,2.729-1.059,2.776Zm-1.687-5.984c-.4,4.981.619,5.265,1.522,5.516.072.02.145.04.215.061.543-.056.592-.823.643-2.384.01-.345.022-.717.043-1.115a1.9,1.9,0,0,0-.866-1.855A1.88,1.88,0,0,0,280.932,322.031Z" fill="#005cb9"/><circle cx="1.183" cy="1.183" r="1.183" transform="translate(281.787 328.093)" fill="#f1f5fb"/><circle cx="1.183" cy="1.183" r="1.183" transform="translate(269.994 328.093)" fill="#f1f5fb"/><path d="M271.136,323.723c0,1.936-.072,8.247,0,8.641a6.061,6.061,0,0,0,5.737,4.769,5.645,5.645,0,0,0,6.023-5.414v-8.964C282.789,321.93,272.462,319.743,271.136,323.723Z" fill="#f1f5fb"/><path d="M273.4,329.923a1.609,1.609,0,0,1,1.721,0" fill="#f1f5fb"/><path d="M273.4,330.033a.108.108,0,0,1-.1-.056.111.111,0,0,1,.041-.15,1.72,1.72,0,0,1,1.838.006.11.11,0,1,1-.125.18,1.5,1.5,0,0,0-1.6.005A.108.108,0,0,1,273.4,330.033Z" fill="#005cb9"/><path d="M278.733,329.923a1.609,1.609,0,0,1,1.721,0" fill="#f1f5fb"/><path d="M278.733,330.033a.111.111,0,0,1-.1-.056.11.11,0,0,1,.042-.15,1.72,1.72,0,0,1,1.838.006.11.11,0,0,1-.125.18,1.505,1.505,0,0,0-1.605.005A.107.107,0,0,1,278.733,330.033Z" fill="#005cb9"/><path d="M278.277,333.345a2.252,2.252,0,0,1-2.407,0" fill="#f1f5fb"/><path d="M277.018,333.8a2.113,2.113,0,0,1-1.21-.367.11.11,0,0,1-.028-.153.111.111,0,0,1,.153-.028,2.148,2.148,0,0,0,2.29-.005.111.111,0,0,1,.15.042.11.11,0,0,1-.042.149A2.673,2.673,0,0,1,277.018,333.8Z" fill="#005cb9"/><path d="M280.458,338.151c.953.211,5.908.892,5.675,9.212-.064,1.057-2.139,2.115-8.512,2.137s-10.079-.621-9.74-2.756c.4-2.75.529-8.084,5.971-8.593,1.3,2.2,1.761,5.121,3.148,5.675C278.567,342.611,280.352,338.322,280.458,338.151Z" fill="#f1f5fb"/><path d="M281.916,338.3l-1.452-.536a.446.446,0,0,0-.533.154l-2.571,3.833a.405.405,0,0,1-.72,0l-2.571-3.833a.443.443,0,0,0-.532-.154l-1.453.536c-.236.087-.286.318-.1.456l1.163.858-.647.715a.222.222,0,0,0-.024.285l4.193,3.887a.382.382,0,0,0,.662,0l4.193-3.887a.222.222,0,0,0-.024-.285l-.647-.716,1.163-.857c.186-.138.136-.369-.1-.456Zm0,0" fill="#6c9fd8"/><path d="M270.471,325.142c.1,1.741-.037,2.891.723,2.928a4.514,4.514,0,0,0,1.166-2.917c4.745,2.025,6.885-.281,8.31-1.644,0,0,.026-.916.106-1.761C274.662,318.713,270.265,321.748,270.471,325.142Z" fill="#005cb9"/><path d="M271.268,328.276l-.084-.005c-.8-.038-.829-.936-.873-2.178-.01-.288-.021-.6-.041-.939h0a4.32,4.32,0,0,1,2.049-3.841c2.155-1.428,5.35-1.332,8.547.255l.124.061-.013.138c-.079.828-.1,1.739-.106,1.748l0,.083-.214.206c-1.439,1.385-3.6,3.464-8.13,1.636a4.548,4.548,0,0,1-1.2,2.779Zm-.6-3.146c.02.34.032.658.042.949.039,1.114.075,1.689.411,1.778a4.563,4.563,0,0,0,1.035-2.728l.033-.266.246.1c4.452,1.9,6.549-.119,7.936-1.455l.1-.092c.008-.229.035-.9.092-1.553-3.023-1.464-6.015-1.548-8.021-.219a3.925,3.925,0,0,0-1.87,3.481Z" fill="#005cb9"/><path d="M280.74,321.9a2.091,2.091,0,0,1,2.817,2.22c-.117,2.2.047,3.645-.912,3.692C281.617,327.485,280.26,327.6,280.74,321.9Z" fill="#005cb9"/><path d="M282.619,328.015l-.035-.011c-.077-.025-.157-.047-.238-.069-1.061-.295-2.263-.628-1.806-6.052l.008-.106.093-.052a2.2,2.2,0,0,1,2.06.187,2.327,2.327,0,0,1,1.057,2.219c-.021.394-.033.764-.044,1.106-.053,1.643-.088,2.729-1.059,2.776Zm-1.687-5.984c-.4,4.981.619,5.265,1.522,5.516.072.02.145.04.215.061.543-.056.592-.823.643-2.384.01-.345.022-.717.043-1.115a1.9,1.9,0,0,0-.866-1.855A1.88,1.88,0,0,0,280.932,322.031Z" fill="#005cb9"/><g clip-path="url(#a)"><circle cx="0.879" cy="0.879" r="0.879" transform="translate(271.557 344.471)" fill="#00c420"/><path d="M272.118,345.175c-1.68-2.55-2.14-4.581-1.368-6.036.764-1.436,2.681-2.182,5.7-2.216,3.6-.047,5.788.607,6.648,1.983.722,1.157.531,2.8-.585,5.018l-.393-.2c1.042-2.071,1.239-3.572.6-4.588-.77-1.235-2.8-1.818-6.27-1.777-2.844.032-4.632.7-5.314,1.984s-.217,3.216,1.346,5.587Z" fill="#00c420"/><path d="M281.434,346.994a.655.655,0,0,1-.437-.177l.288-.332a.2.2,0,0,0,.182.067c.125-.027.4-.212.845-1.152l.037-.079c.488-1.034.5-1.054-.072-1.452-.543-.379-.631-.317-1.616.6-.24.223-.766.714-.762.919,0,.03.016.081.132.18l-.284.335a.7.7,0,0,1-.287-.505c-.008-.34.292-.684.888-1.237.974-.908,1.335-1.243,2.18-.652.874.61.709.96.219,2l-.038.078c-.416.884-.771,1.314-1.151,1.394A.589.589,0,0,1,281.434,346.994Z" fill="#00c420"/></g></g></svg>