<svg xmlns="http://www.w3.org/2000/svg" width="395.239" height="292.969" viewBox="0 0 395.239 292.969"><g transform="translate(-198.536 -7897.638)"><g opacity="0.6"><rect width="395.239" height="0.198" transform="translate(198.536 8156.477)" fill="#f1f5fb"/><rect width="61.316" height="0.198" transform="translate(492.857 8169.2)" fill="#f1f5fb"/><rect width="43.74" height="0.198" transform="translate(418.289 8166.426)" fill="#f1f5fb"/><rect width="46.651" height="0.198" transform="translate(480.548 8161.859)" fill="#f1f5fb"/><rect width="10.034" height="0.198" transform="translate(240.004 8163.188)" fill="#f1f5fb"/><rect width="56.607" height="0.198" transform="translate(257.075 8163.188)" fill="#f1f5fb"/><rect width="37.024" height="0.198" transform="translate(335.417 8166.525)" fill="#f1f5fb"/><path d="M385.89,8121.222H233.25a4.517,4.517,0,0,1-4.512-4.512V7902.149a4.517,4.517,0,0,1,4.512-4.511H385.89a4.516,4.516,0,0,1,4.511,4.511V8116.71A4.517,4.517,0,0,1,385.89,8121.222ZM233.25,7897.835a4.32,4.32,0,0,0-4.315,4.314V8116.71a4.32,4.32,0,0,0,4.315,4.315H385.89a4.32,4.32,0,0,0,4.314-4.315V7902.149a4.32,4.32,0,0,0-4.314-4.314Z" fill="#f1f5fb"/><path d="M556.868,8121.222H404.228a4.517,4.517,0,0,1-4.512-4.512V7902.149a4.517,4.517,0,0,1,4.512-4.511h152.64a4.517,4.517,0,0,1,4.512,4.511V8116.71A4.517,4.517,0,0,1,556.868,8121.222Zm-152.64-223.387a4.319,4.319,0,0,0-4.314,4.314V8116.71a4.319,4.319,0,0,0,4.314,4.315h152.64a4.319,4.319,0,0,0,4.314-4.315V7902.149a4.319,4.319,0,0,0-4.314-4.314Z" fill="#f1f5fb"/></g><g opacity="0.6"><rect width="9.944" height="107.003" transform="translate(405.944 8149.245) rotate(-180)" fill="#f0f0f0"/><rect width="152.258" height="7.132" transform="translate(402.126 8156.377) rotate(-180)" fill="#eff4fa"/><rect width="149.951" height="107.003" transform="translate(246.05 8042.242)" fill="#f1f5fb"/><rect width="10.276" height="6.744" transform="translate(408.616 8042.242) rotate(-180)" fill="#e1e1e1"/><rect width="154.962" height="6.744" transform="translate(243.378 8035.498)" fill="#eff4fa"/><path d="M253.078,8080.461v-22.916a7.8,7.8,0,0,1,7.789-7.789H381.182a7.8,7.8,0,0,1,7.79,7.789v22.916a7.8,7.8,0,0,1-7.79,7.789H260.867A7.8,7.8,0,0,1,253.078,8080.461Zm7.789-29.124a6.216,6.216,0,0,0-6.208,6.208v22.916a6.216,6.216,0,0,0,6.208,6.208H381.182a6.215,6.215,0,0,0,6.209-6.208v-22.916a6.215,6.215,0,0,0-6.209-6.208Z" fill="#fff"/><path d="M253.078,8128.392v-22.915a7.8,7.8,0,0,1,7.789-7.789H381.182a7.8,7.8,0,0,1,7.79,7.789v22.915a7.8,7.8,0,0,1-7.79,7.79H260.867A7.8,7.8,0,0,1,253.078,8128.392Zm7.789-29.123a6.216,6.216,0,0,0-6.208,6.208v22.915a6.216,6.216,0,0,0,6.208,6.209H381.182a6.216,6.216,0,0,0,6.209-6.209v-22.915a6.215,6.215,0,0,0-6.209-6.208Z" fill="#fff"/><path d="M298.674,8069.945v-1.883a2.382,2.382,0,0,1,2.38-2.38H341a2.382,2.382,0,0,1,2.38,2.38v1.883a2.383,2.383,0,0,1-2.38,2.379H301.054A2.382,2.382,0,0,1,298.674,8069.945Zm2.38-2.682a.8.8,0,0,0-.8.8v1.883a.8.8,0,0,0,.8.8H341a.8.8,0,0,0,.8-.8v-1.883a.8.8,0,0,0-.8-.8Z" fill="#fff"/><path d="M298.674,8117.876v-1.883a2.383,2.383,0,0,1,2.38-2.38H341a2.383,2.383,0,0,1,2.38,2.38v1.883a2.382,2.382,0,0,1-2.38,2.38H301.054A2.382,2.382,0,0,1,298.674,8117.876Zm2.38-2.682a.8.8,0,0,0-.8.8v1.883a.8.8,0,0,0,.8.8H341a.8.8,0,0,0,.8-.8v-1.883a.8.8,0,0,0-.8-.8Z" fill="#fff"/><rect width="27.766" height="5.474" transform="translate(525.317 8072.975)" fill="#eff4fa"/><rect width="5.126" height="187.274" transform="translate(478.068 8156.477) rotate(-180)" fill="#eff4fa"/><rect width="70.128" height="5.474" transform="translate(525.317 8078.449) rotate(-180)" fill="#f1f5fb"/><rect width="27.766" height="5.474" transform="translate(525.317 8123.364)" fill="#eff4fa"/><rect width="70.128" height="5.474" transform="translate(525.317 8128.839) rotate(-180)" fill="#f1f5fb"/><rect width="27.766" height="5.474" transform="translate(525.317 7972.196)" fill="#eff4fa"/><rect width="70.128" height="5.474" transform="translate(525.317 7977.67) rotate(-180)" fill="#f1f5fb"/><rect width="27.766" height="5.474" transform="translate(525.317 8022.585)" fill="#eff4fa"/><rect width="70.128" height="5.474" transform="translate(525.317 8028.06) rotate(-180)" fill="#f1f5fb"/><rect width="5.126" height="187.274" transform="translate(548.197 8156.477) rotate(-180)" fill="#eff4fa"/><rect width="5.126" height="187.274" transform="translate(525.317 8156.477) rotate(-180)" fill="#f1f5fb"/><rect width="5.126" height="187.274" transform="translate(460.314 8156.477) rotate(-180)" fill="#f1f5fb"/><rect width="105.046" height="89.791" transform="translate(434.039 8009.891) rotate(-180)" fill="#eff4fa"/><rect width="106.996" height="89.791" transform="translate(431.504 8009.891) rotate(-180)" fill="#f1f5fb"/><rect width="75.639" height="94.108" transform="translate(425.059 7927.175) rotate(90)" fill="#fff"/><rect width="4.31" height="97.74" transform="translate(283.829 8032.73) rotate(-180)" fill="#f1f5fb"/><path d="M266.594,8035.5h30.159a3.8,3.8,0,0,0-3.8-3.8H270.394a3.8,3.8,0,0,0-3.8,3.8Z" fill="#eff4fa"/><path d="M259.863,7962.964h43.62l-5.018-45.164H264.881Z" fill="#eff4fa"/></g><ellipse cx="142.702" cy="8.334" rx="142.702" ry="8.334" transform="translate(255.045 8173.939)" fill="#eff4fa"/><path d="M408.63,8064.034s14.467-.392,20.521-12.564c16.171-32.515,4.209-67.837-3.37-82.168-8.084-12.934-25.373-13.472-44.723-3.819-1.954,4.234-2.311,4.841-3.155,6.839-1.333.911-2.96,1.543-3.576,2.465-12.748,19.118-25.606,55.181-4.137,74.635C373.363,8052.3,378.018,8071.057,408.63,8064.034Z" fill="#005cb9" fill-rule="evenodd"/><path d="M378.629,8001.255c-5.5,25.12-2.346,37.239,5.121,47.5,1.035-3.124,8.105-12.021,16.573-12.323,6.5-.232,15.932,5.978,18.744,10.843,4.433-5.028,9.629-24.423,3.519-49.734-.907-1.9-2.238-9.436-7.461-11.036-9.931-3.042-25.923,2.023-33.868,4.3C378.028,7991.724,380.24,8000.633,378.629,8001.255Z" fill="#241167" fill-rule="evenodd"/><path d="M419.243,8128.191l-64.617,8.309s-8.276,27.336,5.269,27.835,36.549-4.614,42.09-5.041,23.391-14.859,23.391-14.859Z" fill="#7fe18f"/><path d="M398.153,8045.762c7.09.6,39.955,13.646,48.572,24.452,13.208,16.564,22.6,33.585-1.364,53.877s-50.031,11.823-50.031,11.823l1.278-7.829s-63.395,9.478-59.576-34.352c1.427-16.382,17.594-31.636,17.594-31.636Z" fill="#facb9c"/><path d="M423.871,8047.27c3.083.308,5.636.853,9.557,1.081,7.442.432,18.954,21.014,26.117,42.636a73.248,73.248,0,0,0-30.182,13.905l-55.922.345-37.528-11.5c.97-19.253,26.046-43.317,30.98-44.906,4.947-1.294,5.654-1.369,9.1-1.557C396.325,8052.9,404.048,8053.218,423.871,8047.27Z" fill="#7fe18f"/><path d="M364.313,8079.194c-2.716,3.994-5.982,15.818-2.642,24.765C364.313,8100.6,359.2,8091.656,364.313,8079.194Z" fill="#00c420"/><path d="M436.25,8079.194c2.716,3.994,5.981,15.818,2.641,24.765C436.25,8100.6,441.362,8091.656,436.25,8079.194Z" fill="#00c420"/><path d="M399.661,8047.394c7.32,0,9.57-4.322,13.166-6.5-5.906-7.8-5.145-14.684-5.354-22.73H392.848c-.21,8.046-.831,16.663-6.132,22.09C389.979,8042.432,392.342,8047.394,399.661,8047.394Z" fill="#facb9c"/><path d="M407.678,8018.42s-5.362-.257-7.518-.257h-7.312c-.146,7.727-.668,10.066-1.846,14.616C397.291,8032.779,407.887,8026.467,407.678,8018.42Z" fill="#f9c189"/><path d="M354.837,8164.464c-11.538-.99-33.778,3.763-32.429,12.284s26.091,6.275,37.838-2.616C355.238,8166.925,354.837,8164.464,354.837,8164.464Z" fill="#151244"/><path d="M351.231,8165.871c-8.335,1.246-20.14,4.8-17.365,9.1s12.333,3.719,20.76-1.728A9.976,9.976,0,0,1,351.231,8165.871Z" fill="#facb9c"/><path d="M489.279,8144.7c1.758-3.356,8.468-23.648-15.818-30.2-18.381-4.958-45.64,18.637-71.476,32.068,6.482,7.025,14.313,15.568,30.254,13.947,16.5-1.678,32.389-7.272,40.918,4.854A75.906,75.906,0,0,0,489.279,8144.7Z" fill="#005cb9"/><path d="M432.239,8160.519c-15.941,1.621-23.772-6.922-30.254-13.947-8.3,4.315-16.451,7.583-24.115,8.515,0,0-6.347,26.683,41.906,28.92,25.018,1.159,42.289-8.549,53.381-18.634C464.628,8153.247,448.739,8158.841,432.239,8160.519Z" fill="#004f95"/><path d="M434.689,8174.1c9.586-6.5,31.316-13.209,34.3-5.113s-19.7,18.214-34.3,16.19C435.541,8176.444,434.689,8174.1,434.689,8174.1Z" fill="#151244"/><path d="M345.32,8173.994c21.8,17.233,62.506,14.789,94.708,9.107,1.75-3.428,1.284-7.887.945-10.6-3.621,1.278-28.76-3.409-64.976-35.578-32.773-29.475-49.608-26.584-58.193-20.583C309.7,8127.584,311.532,8145.191,345.32,8173.994Z" fill="#005cb9"/><path d="M318.9,8158.016c26.417,38.773,89.476,33.234,119.3,27.482a8.062,8.062,0,0,0,1.824-2.4c-32.2,5.682-72.9,8.126-94.708-9.107-33.788-28.8-33.66-48.253-27.516-57.652a24.045,24.045,0,0,0-2.309,1.836C302.713,8129.682,311.873,8147.577,318.9,8158.016Z" fill="#004f95"/><path d="M438.523,8173.568c7.883-2.983,19.919-5.646,19.6-.533s-8.948,9.267-18.961,8.628A9.973,9.973,0,0,0,438.523,8173.568Z" fill="#facb9c"/><path d="M381.124,7984.383c-1.176,5.422-1.918,39.261,18.86,38.888,19.808-.355,19.659-21.366,19.434-38.728C413.347,7969.524,384.107,7970.642,381.124,7984.383Z" fill="#facb9c"/><path d="M407.278,8000.512a2.57,2.57,0,0,1,.651-1.952,2.282,2.282,0,0,1,3.222-.021,2.607,2.607,0,0,1,.706,1.945l-1.278-.025a1.389,1.389,0,0,0-.341-1.025.966.966,0,0,0-1.377,0,1.3,1.3,0,0,0-.308,1Z" fill="#005cb9"/><path d="M388.47,8000.512a2.57,2.57,0,0,1,.651-1.952,2.282,2.282,0,0,1,3.222-.021,2.6,2.6,0,0,1,.705,1.945l-1.278-.025a1.385,1.385,0,0,0-.34-1.025.966.966,0,0,0-1.377,0,1.3,1.3,0,0,0-.308,1Z" fill="#005cb9"/><path d="M394.521,8007.806h11.344a5.2,5.2,0,0,1-5.672,5.059C394.574,8012.839,394.521,8007.806,394.521,8007.806Z" fill="#fff"/><path d="M399.607,8001.255v2.663H397.85Z" fill="#f9b789"/><path d="M11.226,0H71.1A11.226,11.226,0,0,1,82.325,11.226V49.694a0,0,0,0,1,0,0H0a0,0,0,0,1,0,0V11.226A11.226,11.226,0,0,1,11.226,0Z" transform="translate(358.821 8089.951)" fill="#241167"/><rect width="86.566" height="4.79" rx="2.372" transform="translate(356.701 8139.646)" fill="#241167"/><path d="M391.63,8034.72c-4.337,6.941-15.085,12.5-15.244,12.55,2.18,1.178,11.972,4.654,23.956,4.654,16.563,0,23.924-4.654,23.924-4.654-10.222-2.467-13.337-8.266-15.627-13.219C395.963,8036.288,391.63,8034.72,391.63,8034.72Z" fill="#facb9c"/><path d="M381.257,7983.369c12.713-7.739,34.933,6.054,41.329,14.167-.685-6.041-2.956-18.049-6.391-22.372-5.39-6.781-21.893-8.489-25.99-5.855S381.437,7975.863,381.257,7983.369Z" fill="#005cb9" fill-rule="evenodd"/><path d="M386.636,7977.111c-.639,8.708-9.028,26.443-9.986,28.44-3.755-19.972-.879-27.082,2.316-27.721A52.778,52.778,0,0,1,386.636,7977.111Z" fill="#005cb9" fill-rule="evenodd"/></g></svg>