<svg xmlns="http://www.w3.org/2000/svg" width="244" height="46.628" viewBox="0 0 244 46.628"><g transform="translate(2052.552 -714.23)"><path d="M258.667,87.569a15.06,15.06,0,1,1-15.1-14.669A14.759,14.759,0,0,1,258.667,87.569Zm-24.148,0c0,5.491,3.817,9.308,9.093,9.308a9.311,9.311,0,0,0,0-18.616C238.336,78.261,234.519,82.122,234.519,87.569Z" transform="translate(-2223 650)" fill="#005cb9"/><path d="M282.164,78.261l-3.946,3.046c-1.372-2.059-3.088-3.26-5.4-3.26-1.888,0-3.518.858-3.518,2.745,0,1.63,1.244,2.316,3.3,3.26l3.217,1.416c4.461,1.972,6.991,4.246,6.991,8.278,0,5.276-4.289,8.492-9.908,8.492a12.222,12.222,0,0,1-10.937-6.262l3.989-3c1.544,2.144,3.56,4.117,6.948,4.117,2.488,0,4.032-1.158,4.032-3.131,0-1.844-1.372-2.488-3.6-3.517l-3.045-1.373c-4.032-1.844-6.863-4.16-6.863-8.149,0-4.89,4.075-8.021,9.394-8.021A10.209,10.209,0,0,1,282.164,78.261Z" transform="translate(-2223 650)" fill="#005cb9"/><path d="M295.187,101.724H289.4V73.415h5.791Z" transform="translate(-2223 650)" fill="#005cb9"/><path d="M191.565,83.216c-.133-.123,12.343-12.726,14.672-15.3a23.291,23.291,0,0,0-26.928,37.936l3.514-3.552a18.337,18.337,0,0,1,13.914-32.818c-3.254,3.274-9.426,9.479-9.441,9.465a12.4,12.4,0,0,0-3.717,10.724,14.151,14.151,0,0,0,3.853,7.178.325.325,0,0,0,.5.036l4.223-4.228a.321.321,0,0,0,.042-.443c-.149-.174-.245-.286-.386-.468-1.652-1.664-2.5-4.623-1.441-6.783A6.912,6.912,0,0,1,191.565,83.216Z" transform="translate(-2223 650)" fill="#005cb9" fill-rule="evenodd"/><path d="M204.254,72.553a18.337,18.337,0,0,1-14.2,32.978c3.473-3.522,10.1-10.246,10.121-10.231A12.4,12.4,0,0,0,203.9,84.576,10.907,10.907,0,0,0,200,77.509a.327.327,0,0,0-.5-.036L195.281,81.7a.321.321,0,0,0-.042.443c.15.174.245.287.387.468a5.867,5.867,0,0,1,1.478,6.672,6.927,6.927,0,0,1-1.2,1.747s-10.787,11.041-12.464,12.816l-2.812,2.978a23.291,23.291,0,0,0,27.146-37.837Z" transform="translate(-2223 650)" fill="#00a350" fill-rule="evenodd"/><rect width="0.784" height="46.628" transform="translate(-1914.244 714.23)" fill="#5a5a58"/><path d="M335.619,91.624h-4.6v2.693h3.521v.933h-3.521v3.307h4.761v.934h-5.8v-8.8h5.64Z" transform="translate(-2223 650)" fill="#5a5a58"/><path d="M341.61,93.877l-.627.64a2.238,2.238,0,0,0-1.6-.72c-.613,0-1.08.28-1.08.813,0,.441.333.654,1.053.947l.6.253c1.174.494,1.721,1,1.721,1.92,0,1.268-1.081,1.908-2.281,1.908a3.129,3.129,0,0,1-2.533-1.267l.653-.68a2.553,2.553,0,0,0,1.867,1c.68,0,1.24-.334,1.24-.92,0-.56-.48-.774-1.133-1.04l-.627-.267c-.987-.413-1.613-.867-1.613-1.8,0-1.174,1-1.814,2.186-1.814A2.709,2.709,0,0,1,341.61,93.877Z" transform="translate(-2223 650)" fill="#5a5a58"/><path d="M350.007,96.237a3.237,3.237,0,0,1-3.214,3.4,2.976,2.976,0,0,1-2.387-1.094v3.347H343.38V93h.96v1.04a2.92,2.92,0,0,1,2.453-1.187A3.224,3.224,0,0,1,350.007,96.237Zm-1.054.014a2.312,2.312,0,0,0-2.307-2.454,2.455,2.455,0,0,0,0,4.894A2.308,2.308,0,0,0,348.953,96.251Z" transform="translate(-2223 650)" fill="#5a5a58"/><path d="M357.452,96.557h-5.121a2.289,2.289,0,0,0,2.374,2.134,2.73,2.73,0,0,0,1.986-.88l.6.693a3.5,3.5,0,0,1-2.6,1.134,3.395,3.395,0,0,1-.12-6.788,2.859,2.859,0,0,1,2.961,2.934A3.909,3.909,0,0,1,357.452,96.557Zm-5.081-.906h4.107a1.822,1.822,0,0,0-1.933-1.867A2.189,2.189,0,0,0,352.371,95.651Z" transform="translate(-2223 650)" fill="#5a5a58"/><path d="M364.85,94.264l-.733.587a2.452,2.452,0,1,0-.014,2.8l.734.573a3.143,3.143,0,0,1-2.667,1.414,3.394,3.394,0,1,1,0-6.788A3.148,3.148,0,0,1,364.85,94.264Z" transform="translate(-2223 650)" fill="#5a5a58"/><path d="M367.623,90.517a.767.767,0,0,1-1.533,0,.767.767,0,0,1,1.533,0Zm-.253,8.974h-1.027V93h1.027Z" transform="translate(-2223 650)" fill="#5a5a58"/><path d="M374.35,95.491v4h-.961v-.84a2.612,2.612,0,0,1-2.186.987c-1.307,0-2.267-.694-2.267-1.827,0-1.094.92-1.814,2.333-1.814h2.054v-.56a1.458,1.458,0,0,0-1.574-1.64,2.3,2.3,0,0,0-1.893,1.04l-.68-.56a3,3,0,0,1,2.64-1.427A2.385,2.385,0,0,1,374.35,95.491ZM373.323,97v-.16h-1.934c-.906,0-1.4.307-1.4.92,0,.694.627,1.027,1.347,1.027A1.9,1.9,0,0,0,373.323,97Z" transform="translate(-2223 650)" fill="#5a5a58"/><path d="M377.407,99.491H376.38v-10h1.027Z" transform="translate(-2223 650)" fill="#5a5a58"/><path d="M380.759,90.517a.767.767,0,0,1-1.533,0,.767.767,0,0,1,1.533,0Zm-.253,8.974h-1.027V93h1.027Z" transform="translate(-2223 650)" fill="#5a5a58"/><path d="M387.134,98.584v.907H381.8v-.307l3.707-5.267h-3.4V93h4.987V93.3l-3.72,5.28Z" transform="translate(-2223 650)" fill="#5a5a58"/><path d="M393.544,95.491v4h-.96v-.84a2.616,2.616,0,0,1-2.187.987c-1.307,0-2.267-.694-2.267-1.827,0-1.094.92-1.814,2.334-1.814h2.053v-.56a1.458,1.458,0,0,0-1.573-1.64,2.3,2.3,0,0,0-1.894,1.04l-.68-.56a3,3,0,0,1,2.64-1.427A2.385,2.385,0,0,1,393.544,95.491ZM392.517,97v-.16h-1.933c-.907,0-1.4.307-1.4.92,0,.694.626,1.027,1.346,1.027A1.9,1.9,0,0,0,392.517,97Z" transform="translate(-2223 650)" fill="#5a5a58"/><path d="M401.777,89.49v10H400.8v-1.04a2.923,2.923,0,0,1-2.454,1.187,3.4,3.4,0,0,1,0-6.788,2.974,2.974,0,0,1,2.4,1.107V89.49Zm-1.014,6.761A2.233,2.233,0,0,0,398.5,93.8a2.451,2.451,0,0,0,0,4.894A2.222,2.222,0,0,0,400.763,96.251Z" transform="translate(-2223 650)" fill="#5a5a58"/><path d="M410.232,96.237a3.4,3.4,0,1,1-3.4-3.387A3.38,3.38,0,0,1,410.232,96.237Zm-5.746.014a2.324,2.324,0,0,0,2.333,2.426,2.442,2.442,0,1,0-2.333-2.426Z" transform="translate(-2223 650)" fill="#5a5a58"/><path d="M334.1,76.435l-.773.613a3.375,3.375,0,0,0-2.867-1.546,3.587,3.587,0,0,0,0,7.173,3.378,3.378,0,0,0,2.867-1.546l.773.613a4.27,4.27,0,0,1-3.654,1.893,4.547,4.547,0,1,1,0-9.093A4.3,4.3,0,0,1,334.1,76.435Z" transform="translate(-2223 650)" fill="#5a5a58"/><path d="M341.411,80.555h-5.12a2.288,2.288,0,0,0,2.373,2.134,2.731,2.731,0,0,0,1.987-.881l.6.694a3.5,3.5,0,0,1-2.6,1.133,3.394,3.394,0,0,1-.12-6.787,2.858,2.858,0,0,1,2.96,2.934A3.844,3.844,0,0,1,341.411,80.555Zm-5.08-.906h4.106a1.822,1.822,0,0,0-1.933-1.867A2.188,2.188,0,0,0,336.331,79.649Z" transform="translate(-2223 650)" fill="#5a5a58"/><path d="M348.549,79.408v4.081h-1.026V79.528a1.574,1.574,0,0,0-1.614-1.733,1.653,1.653,0,0,0-1.707,1.733v3.961h-1.026V77h.96V77.7a2.57,2.57,0,0,1,2-.854A2.323,2.323,0,0,1,348.549,79.408Z" transform="translate(-2223 650)" fill="#5a5a58"/><path d="M354.009,82.622v.867a4.413,4.413,0,0,1-1.08.146,1.939,1.939,0,0,1-2.187-2.107V77.915h-1.094V77h1.094V75.222h1.026V77H353.8v.92h-2.027v3.547c0,.973.561,1.24,1.374,1.24A5.553,5.553,0,0,0,354.009,82.622Z" transform="translate(-2223 650)" fill="#5a5a58"/><path d="M358.789,77V77.9H358.4a1.9,1.9,0,0,0-2.04,1.906v3.681h-1.027V77h.96v.933a2.512,2.512,0,0,1,2.013-.986A2.151,2.151,0,0,1,358.789,77Z" transform="translate(-2223 650)" fill="#5a5a58"/><path d="M366.214,80.235a3.4,3.4,0,1,1-3.4-3.387A3.38,3.38,0,0,1,366.214,80.235Zm-5.747.013a2.325,2.325,0,0,0,2.334,2.427,2.442,2.442,0,1,0-2.334-2.427Z" transform="translate(-2223 650)" fill="#5a5a58"/><path d="M379.922,74.542v8.947h-1.04v-6.32L376.069,81H375.7l-2.827-3.84v6.334h-1.04V74.542h.373l3.667,5.093,3.693-5.093Z" transform="translate(-2223 650)" fill="#5a5a58"/><path d="M387.9,80.555H382.78a2.289,2.289,0,0,0,2.374,2.134,2.731,2.731,0,0,0,1.987-.881l.6.694a3.5,3.5,0,0,1-2.6,1.133,3.394,3.394,0,0,1-.119-6.787,2.858,2.858,0,0,1,2.96,2.934A3.92,3.92,0,0,1,387.9,80.555Zm-5.08-.906h4.106a1.822,1.822,0,0,0-1.933-1.867A2.188,2.188,0,0,0,382.821,79.649Zm2.6-3.707h-.786l1.133-2.854h1.254v.187Z" transform="translate(-2223 650)" fill="#5a5a58"/><path d="M395.859,73.488v10h-.973V82.448a2.92,2.92,0,0,1-2.454,1.187,3.4,3.4,0,0,1,0-6.787,2.974,2.974,0,0,1,2.4,1.107V73.488Zm-1.013,6.76a2.234,2.234,0,0,0-2.267-2.453,2.451,2.451,0,0,0,0,4.894A2.223,2.223,0,0,0,394.846,80.248Z" transform="translate(-2223 650)" fill="#5a5a58"/><path d="M399.233,74.515a.767.767,0,0,1-1.533,0,.767.767,0,0,1,1.533,0Zm-.253,8.974h-1.027V77h1.027Z" transform="translate(-2223 650)" fill="#5a5a58"/><path d="M406.666,78.262l-.734.586a2.34,2.34,0,0,0-4.293,1.387A2.362,2.362,0,0,0,404,82.689a2.32,2.32,0,0,0,1.92-1.04l.733.573a3.141,3.141,0,0,1-2.666,1.413,3.394,3.394,0,1,1,0-6.787A3.149,3.149,0,0,1,406.666,78.262Z" transform="translate(-2223 650)" fill="#5a5a58"/><path d="M414.448,80.235a3.4,3.4,0,1,1-3.4-3.387A3.38,3.38,0,0,1,414.448,80.235Zm-5.747.013a2.325,2.325,0,0,0,2.333,2.427,2.442,2.442,0,1,0-2.333-2.427Z" transform="translate(-2223 650)" fill="#5a5a58"/></g></svg>