<svg xmlns="http://www.w3.org/2000/svg" width="429.484" height="368.447" viewBox="0 0 429.484 368.447"><g transform="translate(-976.384 -2519.94)"><g opacity="0.6"><g transform="translate(30.021)"><rect width="429.484" height="0.248" transform="translate(946.363 2844.788)" fill="#f1f5fb"/></g><rect width="32.859" height="0.248" transform="translate(1359.837 2860.757)" fill="#f1f5fb"/><rect width="8.624" height="0.248" transform="translate(1266.332 2863.449)" fill="#f1f5fb"/><rect width="47.289" height="0.248" transform="translate(1311.555 2851.544)" fill="#f1f5fb"/><rect width="23.491" height="0.248" transform="translate(998.406 2853.211)" fill="#f1f5fb"/><rect width="25.642" height="0.248" transform="translate(1030.73 2853.211)" fill="#f1f5fb"/><rect width="64.127" height="0.248" transform="translate(1076.792 2857.4)" fill="#f1f5fb"/><path d="M1181.5,2800.544H989.93a5.669,5.669,0,0,1-5.663-5.663V2525.6a5.669,5.669,0,0,1,5.663-5.662H1181.5a5.669,5.669,0,0,1,5.662,5.662v269.279A5.67,5.67,0,0,1,1181.5,2800.544ZM989.93,2520.188a5.421,5.421,0,0,0-5.415,5.414v269.279a5.42,5.42,0,0,0,5.415,5.414H1181.5a5.42,5.42,0,0,0,5.414-5.414V2525.6a5.42,5.42,0,0,0-5.414-5.414Z" fill="#f1f5fb"/><path d="M1396.078,2800.544H1204.511a5.67,5.67,0,0,1-5.662-5.663V2525.6a5.669,5.669,0,0,1,5.662-5.662h191.567a5.669,5.669,0,0,1,5.663,5.662v269.279A5.669,5.669,0,0,1,1396.078,2800.544Zm-191.567-280.356a5.42,5.42,0,0,0-5.414,5.414v269.279a5.42,5.42,0,0,0,5.414,5.414h191.567a5.42,5.42,0,0,0,5.415-5.414V2525.6a5.421,5.421,0,0,0-5.415-5.414Z" fill="#f1f5fb"/></g><g opacity="0.6"><rect width="156.719" height="299.008" transform="translate(1208.055 2545.781)" fill="#eff4fa"/><rect width="133.406" height="289.257" transform="translate(1219.712 2555.532)" fill="#f9fafd"/><rect width="37.506" height="10.371" transform="translate(1267.662 2579.524)" fill="#fff"/><path d="M1322.071,2682.5h20.348a3.177,3.177,0,0,1,3.177,3.177h0a3.178,3.178,0,0,1-3.177,3.178h-20.348a3.178,3.178,0,0,1-3.178-3.178h0A3.178,3.178,0,0,1,1322.071,2682.5Z" fill="#fff"/><rect width="104.223" height="83.998" transform="translate(996.681 2577.6)" fill="#eff4fa"/><rect width="72.811" height="93.039" transform="translate(1095.309 2583.192) rotate(90)" fill="#f9fafd"/><rect width="3.478" height="71.338" transform="translate(1084.458 2617.073) rotate(90)" fill="#eff4fa"/><rect width="3.478" height="71.338" transform="translate(1084.458 2624.996) rotate(90)" fill="#eff4fa"/><rect width="3.478" height="71.338" transform="translate(1084.458 2632.919) rotate(90)" fill="#eff4fa"/><rect width="3.478" height="35.566" transform="translate(1066.572 2640.843) rotate(90)" fill="#eff4fa"/><path d="M1013.116,2583.19a10.842,10.842,0,0,1-16.435,9.291V2577.6h14.893A10.791,10.791,0,0,1,1013.116,2583.19Z" fill="#eff4fa"/><path d="M1100.9,2577.6v14.881a10.845,10.845,0,0,1-14.892-14.881Z" fill="#eff4fa"/><path d="M1013.116,2656.007a10.791,10.791,0,0,1-1.542,5.59H996.681v-14.892a10.842,10.842,0,0,1,16.435,9.3Z" fill="#eff4fa"/><path d="M1100.9,2646.705V2661.6h-14.892a10.85,10.85,0,0,1,14.892-14.892Z" fill="#eff4fa"/><circle cx="9.239" cy="9.239" r="9.239" transform="translate(1038.193 2608.563) rotate(-80.783)" fill="#eff4fa"/><rect width="206.232" height="7.419" transform="translate(978.902 2725.498)" fill="#eff4fa"/><rect width="67.002" height="111.871" transform="translate(1116.344 2732.917)" fill="#f5f5f5"/><rect width="67.002" height="111.871" transform="translate(981.45 2732.917)" fill="#f9fafd"/><rect width="2.287" height="111.871" transform="translate(981.45 2732.917)" fill="#eff4fa"/><rect width="2.287" height="111.871" transform="translate(1116.344 2732.917)" fill="#e5ecf7"/><path d="M1016.641,2707.611h-12.319l.988,17.887h10.342Z" fill="#eff4fa"/><rect width="64.374" height="7.759" transform="translate(1059.245 2717.739)" fill="#eff4fa"/><rect width="29.679" height="5.94" transform="translate(1093.94 2718.648)" fill="#f1f5fb"/></g><path d="M1217.944,2849.941H1114.4a12.169,12.169,0,0,1-12.261-13.149l16.747-247.922a14.326,14.326,0,0,1,14.038-13.149h103.544a12.168,12.168,0,0,1,12.261,13.149l-16.747,247.922A14.326,14.326,0,0,1,1217.944,2849.941Z" fill="#005a9c"/><path d="M1240.85,2676.686h-2.612a3.4,3.4,0,0,1-3.424-3.671l3.2-47.406a4,4,0,0,1,3.92-3.672h2.612a3.4,3.4,0,0,1,3.423,3.672l-3.2,47.406A4,4,0,0,1,1240.85,2676.686Z" fill="#005a9c"/><path d="M1117.367,2645.062h-2.607a2.779,2.779,0,0,1-2.8-3l1.157-17.119a3.271,3.271,0,0,1,3.205-3h2.607a2.778,2.778,0,0,1,2.8,3l-1.156,17.119A3.271,3.271,0,0,1,1117.367,2645.062Z" fill="#007cff"/><path d="M1215.752,2849.941H1112.208a12.168,12.168,0,0,1-12.261-13.149l16.747-247.922a14.326,14.326,0,0,1,14.038-13.149h103.544a12.169,12.169,0,0,1,12.261,13.149l-16.747,247.922A14.326,14.326,0,0,1,1215.752,2849.941Z" fill="#005cb9"/><path d="M1101.033,2834.063l16.348-242.017h128.04l-16.349,242.017Z" fill="#e5ecf7"/><g opacity="0.5"><path d="M1151.582,2834.063l45.691-242.017h28.682l-45.691,242.017Z" fill="#fff"/></g><g opacity="0.5"><path d="M1129.919,2834.063l45.691-242.017h14.528l-45.691,242.017Z" fill="#fff"/></g><path d="M1169.608,2581.8h24.969a1.5,1.5,0,0,1,1.512,1.622h0a1.766,1.766,0,0,1-1.731,1.621h-24.969a1.5,1.5,0,0,1-1.511-1.621h0A1.766,1.766,0,0,1,1169.608,2581.8Z" fill="#005a9c"/><ellipse cx="110.712" cy="11.234" rx="110.712" ry="11.234" transform="translate(1044.886 2865.92)" fill="#eff4fa"/><path d="M1331.392,2615.08l-.991-.066a15.275,15.275,0,0,0-15.366-16.474v-.992a16.267,16.267,0,0,1,16.357,17.532Z" fill="#005cb9"/><rect width="8.211" height="0.992" transform="translate(1329.545 2627.758) rotate(-86.194)" fill="#005cb9"/><path d="M1315.035,2601.02h-68.413a15.063,15.063,0,0,0-14.76,13.826l-.622,9.217a12.794,12.794,0,0,0,12.892,13.826h68.413l13.272,8.193,2.11-31.236A12.8,12.8,0,0,0,1315.035,2601.02Z" fill="#005cb9"/><rect width="63.406" height="2.304" transform="translate(1248.156 2614.221)" fill="#fff"/><rect width="47.075" height="2.304" transform="translate(1263.935 2622.386)" fill="#fff"/><path d="M1212.06,2650.323h69.963a13.085,13.085,0,0,1,13.184,14.139l-.637,9.426a15.4,15.4,0,0,1-15.094,14.139h-69.963l-14.7,8.379,2.158-31.944A15.4,15.4,0,0,1,1212.06,2650.323Z" fill="#fff"/><g opacity="0.15"><path d="M1212.06,2650.323h69.963a13.085,13.085,0,0,1,13.184,14.139l-.637,9.426a15.4,15.4,0,0,1-15.094,14.139h-69.963l-14.7,8.379,2.158-31.944A15.4,15.4,0,0,1,1212.06,2650.323Z" fill="#005cb9"/></g><g opacity="0.5"><rect width="64.841" height="2.356" transform="translate(1213.629 2663.823)" fill="#007ac7"/></g><g opacity="0.5"><rect width="25.622" height="2.356" transform="translate(1213.065 2672.172)" fill="#007ac7"/></g><g opacity="0.5"><rect width="16.365" height="2.356" transform="translate(1244.971 2672.172)" fill="#007ac7"/></g><path d="M1069.505,2616.015a68.376,68.376,0,0,0,5.967,4.483,12.7,12.7,0,0,1,3.294,3.673,3.367,3.367,0,0,0,1.271,1.508,19.384,19.384,0,0,0-3.875,4.871c-2.482-1.4-9.3-3.267-10.742-4.111s-5.656-3.889-8.375-4.668a.823.823,0,0,1,.561-1.416,25.187,25.187,0,0,1,6.262.42,46.892,46.892,0,0,0,6.942-.034,5.094,5.094,0,0,1-2.5-3.715A.9.9,0,0,1,1069.505,2616.015Z" fill="#facb9c"/><path d="M1129,2600.542a12.859,12.859,0,0,1,.568,12.07c-5.914,12.484-12.876,29.8-16.365,34.407-4.861,6.42-7.347,9.367-13.988,5.971-3.03-1.549-25.751-21.368-25.751-21.368l5.821-9.7,21.41,12.235s12.534-32.319,17-35.13,10.458.086,10.458.086Z" fill="#fff"/><path d="M1163.982,2873.8l-8.755.841-3.156-20.195,8.755-.841Z" fill="#facc9c"/><path d="M1154.231,2870.358l9.16-2.853a.651.651,0,0,1,.817.377l2.992,7.281a1.494,1.494,0,0,1-.94,1.936c-3.314.97-6.463,1.228-10.46,2.942-4.674,2-6.635,4.641-11.657,4.641-3.606,0-4.415-3.3-2.894-3.762,6.92-2.1,6.035-3.828,11.079-9.25A4.532,4.532,0,0,1,1154.231,2870.358Z" fill="#4a4a49"/><path d="M1152.073,2854.447l1.625,10.409,8.759-.841-1.625-10.41Z" fill="#f9c189"/><path d="M1152.515,2765.78c2.584-30.515,3.653-87.592,3.653-87.592l-36.567,3.082s3.108,61.292,9.844,90.233c7.361,31.622,22.137,91.428,22.137,91.428l12.4-1.2S1159.09,2798.667,1152.515,2765.78Z" fill="#005cb9"/><path d="M1182.975,2761.6c-7.591-39-9.29-69.512-16.5-84.283l-35.423,3.948s21.1,58.128,31.405,82.935c10.706,25.8,33.257,69.86,33.257,69.86h12.34S1195.474,2779.371,1182.975,2761.6Z" fill="#005cb9"/><path d="M1118.584,2543.236c1.915-5.992,12.551-13.5,30.984-.35,1.947,2.461,1.871,7.176-.728,12.946-27.269-.178-28.64,3.4-28.64,3.4-2.78-7.423.589-7.872.054-10.9A18.154,18.154,0,0,0,1118.584,2543.236Z" fill="#005cb9"/><path d="M1130.8,2536.1a15.154,15.154,0,0,0-7.824,1.564,12.081,12.081,0,0,0-4.9,4.626c-.754,1.446-.351,3.155-.264,4.784a20.5,20.5,0,0,0,1.586,5.742" fill="#005cb9"/><path d="M1123.5,2596.624l4.66-3.531,17.556-1.122.706,2.354-5.711,35.635,12.167,52.381-32.155,1.373Z" fill="#f6f8fc"/><path d="M1135.688,2602.83c7.289,0,7.162-4.339,10.743-6.508-2.8-7.712-2.756-13.422-2.964-21.434H1128.9c-.209,8.012-.167,13.722-2.965,21.434C1129.188,2598.491,1128.4,2602.83,1135.688,2602.83Z" fill="#facb9c"/><path d="M1143.671,2575.144s-5.34-.256-7.486-.256H1128.9a101.294,101.294,0,0,1-.907,13.7C1134.259,2588.591,1143.879,2583.157,1143.671,2575.144Z" fill="#f9c189"/><path d="M1147.035,2544.441a27.3,27.3,0,0,0-10.5-4.8,27.672,27.672,0,0,0-15.407,1.137c-2.87,9.711-1.986,17.506-1.637,22.108.728,9.6,3.2,17.869,9.517,19.321,5.068.851,16.9-.824,18.505-15.832C1147.511,2553.641,1147.035,2544.441,1147.035,2544.441Z" fill="#facb9c"/><path d="M1129.67,2567.45a49.545,49.545,0,0,0,.606-5.046c-.515,2.123-.71,3.682-.944,5.233a4.6,4.6,0,0,0,3.223.456A5.347,5.347,0,0,1,1129.67,2567.45Z" fill="#f9b789"/><path d="M1127.375,2571.248c2.075.874,6.759.8,9.734-.626-.315,1.749-.979,5.793-5.676,5.636C1128.068,2576.146,1127.375,2571.248,1127.375,2571.248Z" fill="#fff"/><ellipse cx="1.845" cy="1.88" rx="1.845" ry="1.88" transform="translate(1134.074 2557.324)" fill="#005cb9"/><path d="M1126.9,2554.887c-.146.242-.846.091-1.657.175-.814.055-1.478.323-1.663.11-.083-.105,0-.34.274-.585a2.414,2.414,0,0,1,2.676-.229C1126.838,2554.552,1126.958,2554.77,1126.9,2554.887Z" fill="#005cb9"/><path d="M1138.708,2555.238c-.155.239-1.084-.1-2.24-.228-1.155-.147-2.138-.026-2.233-.295-.041-.127.173-.336.6-.5a3.918,3.918,0,0,1,3.408.4C1138.616,2554.871,1138.777,2555.123,1138.708,2555.238Z" fill="#005cb9"/><circle cx="0.361" cy="0.361" r="0.361" transform="translate(1136.082 2558.211)" fill="#ccdbf1"/><circle cx="1.845" cy="1.845" r="1.845" transform="translate(1124.171 2557.77)" fill="#005cb9"/><path d="M1132.5,2609.022c-.688,4.373-1.295,8.962-1.788,13.754-.688,6.688-.75,17.53-.923,23.513a26.952,26.952,0,0,0,4.734,5.671l4.413-4.9c-.517-5.263-1.362-16.788-2.126-23.956-.53-4.97-.831-9.692-.966-14.127Z" fill="#3c89ce"/><path d="M1131.262,2602.265h7.029l.867,4.862s-1.022,2.632-2.167,3.344-5.233,0-5.233,0a15.976,15.976,0,0,1-1.8-4.4A20.674,20.674,0,0,1,1131.262,2602.265Z" fill="#3c89ce"/><path d="M1145.449,2591.835c-2.965,6.856-11.182,10.223-11.182,10.223a61.577,61.577,0,0,1,5.034,6.918S1148.414,2596.961,1145.449,2591.835Z" fill="#fff"/><path d="M1127.039,2592.889a12.411,12.411,0,0,0,7.229,9.363,19.343,19.343,0,0,0-5.017,5.821S1123.066,2597.3,1127.039,2592.889Z" fill="#fff"/><path d="M1142.049,2657.5a4.006,4.006,0,0,0-2.3-1.439c-5.864-.129-11.855-.715-17.719-.844l-.469,28.494c1.4-2.473,2.73-16.166,3.1-18.986.161-1.231.368-2.7,1.492-3.23a3.361,3.361,0,0,1,2.071-.046,48.637,48.637,0,0,0,6.377,1.1,10.231,10.231,0,0,0,6.221-1.357,3.8,3.8,0,0,0,1.488-1.608A1.969,1.969,0,0,0,1142.049,2657.5Z" fill="#f9fafd"/><path d="M1126.656,2593.379l-8.967,5.647-2.2,7.245-1.965,21,1.6,25.357,2.637,84.265h9.552l-3.809-76.521-.2-39,1.834-24.522Z" fill="#fff"/><path d="M1122.152,2626.763a2.136,2.136,0,0,1-.173-.291l-.465-.857c-.193-.377-.381-.861-.623-1.411-.115-.278-.209-.586-.325-.907s-.236-.661-.33-1.028a38.737,38.737,0,0,1-1.339-11.708c.012-.358.026-.712.051-1.064l0-.061.057-.024,1.635-.687-.024.169-1.632-1.312-.034-.028,0-.04a14.2,14.2,0,0,1,.744-4.671c.411-1.367.861-2.544,1.255-3.512s.739-1.724.984-2.238c.123-.257.22-.454.289-.586a1.1,1.1,0,0,1,.112-.2,1.3,1.3,0,0,1-.082.211l-.26.6c-.226.522-.552,1.285-.931,2.256s-.812,2.151-1.209,3.514a14.263,14.263,0,0,0-.71,4.609l-.036-.068,1.637,1.308.13.1-.154.065-1.634.689.061-.085c-.023.346-.037.7-.049,1.055a40.029,40.029,0,0,0,1.274,11.662c.089.367.209.705.315,1.027s.2.629.308.907c.232.552.407,1.038.589,1.418l.429.871A2.086,2.086,0,0,1,1122.152,2626.763Z" fill="#f1f5fb"/><path d="M1114.823,2641.467a1.812,1.812,0,0,1-.09-.3l-.221-.881c-.1-.382-.208-.852-.315-1.4s-.251-1.172-.362-1.869-.252-1.457-.357-2.28c-.125-.82-.21-1.7-.309-2.631-.168-1.858-.281-3.908-.283-6.062s.131-4.205.305-6.062c.1-.928.192-1.81.32-2.63.108-.823.24-1.584.365-2.279s.256-1.319.369-1.867.222-1.019.32-1.4.168-.661.224-.88a1.907,1.907,0,0,1,.091-.3,1.855,1.855,0,0,1-.051.313l-.187.887c-.086.385-.188.856-.287,1.406s-.234,1.173-.338,1.87-.24,1.455-.341,2.276c-.12.819-.2,1.7-.3,2.625-.164,1.854-.278,3.9-.288,6.046s.109,4.191.266,6.044c.094.926.173,1.807.29,2.626.1.822.219,1.583.332,2.278s.232,1.32.331,1.871.2,1.022.282,1.407.138.667.183.888A1.84,1.84,0,0,1,1114.823,2641.467Z" fill="#f1f5fb"/><path d="M1158.725,2597.827l-6.746-2.757-7.145-4.149a17.37,17.37,0,0,1,.392,5.006l-5.474,32.01,1.342,22.554,11.25,84.679,28.023.963L1166.4,2650.24l-1.428-32.106Z" fill="#fff"/><path d="M1146.183,2608.361l3.089-1.991s.838-4.107-.238-11.444c.763,2.75,1.246,10.042.592,11.757C1148.476,2607.34,1146.183,2608.361,1146.183,2608.361Z" fill="#f1f5fb"/><path d="M1146.042,2608.976l2.632,1s-1.339,5.368-7.6,17.754c.709-1.052,1.991-3.5,2.766-4.9a112.487,112.487,0,0,0,5.508-12.873Z" fill="#f1f5fb"/><path d="M1159.891,2623.363s3.525,17.784,2.953,19.214a9.635,9.635,0,0,0,3.119-1.381l-.124-4.5Z" fill="#f1f5fb"/><path d="M1155.315,2622.611" fill="#f1f5fb"/><path d="M1147.7,2660.221c11.995-.711,18.954-2.1,19.93-2.4-.164-1.056-.323-2.209-.323-2.209C1165.572,2655.884,1152.307,2660.116,1147.7,2660.221Z" fill="#f6f8fc"/><path d="M1149.258,2622.355c-.018-.016,1.655-1.706,1.968-2.051a3.123,3.123,0,0,0-3.611,5.087l.471-.476a2.459,2.459,0,0,1,1.866-4.4c-.437.439-1.264,1.271-1.266,1.269a1.665,1.665,0,0,0-.5,1.438,1.91,1.91,0,0,0,.517.963.044.044,0,0,0,.067,0l.566-.567a.044.044,0,0,0,.006-.06c-.02-.023-.033-.038-.052-.063a.85.85,0,0,1-.193-.909A.95.95,0,0,1,1149.258,2622.355Z" fill="#005cb9" fill-rule="evenodd"/><path d="M1150.96,2620.926a2.458,2.458,0,0,1-1.411,4.471,2.5,2.5,0,0,1-.493-.049c.466-.472,1.355-1.374,1.357-1.372a1.665,1.665,0,0,0,.5-1.438,1.466,1.466,0,0,0-.522-.948.044.044,0,0,0-.067-.005l-.566.567a.043.043,0,0,0-.006.06c.02.023.033.038.052.063a.786.786,0,0,1,.2.894.913.913,0,0,1-.16.234s-1.447,1.481-1.672,1.719l-.377.4a3.123,3.123,0,0,0,3.64-5.073Z" fill="#00a350" fill-rule="evenodd"/><path d="M1148.669,2553.264a9.54,9.54,0,0,0,.471-2.09,17.521,17.521,0,0,0,.169-2.131c.008-.712-.056-1.418-.082-2.11a9.03,9.03,0,0,0-.09-1.023c-.068-.32-.125-.676-.441-.824l.007-.066a.686.686,0,0,1,.554.243,2.263,2.263,0,0,1,.322.505,4.185,4.185,0,0,1,.31,1.1,8.264,8.264,0,0,1-.048,2.212,12.687,12.687,0,0,1-1.111,4.214Z" fill="#0064bc"/><circle cx="0.361" cy="0.361" r="0.361" transform="translate(1126.106 2558.501)" fill="#ccdbf1"/><path d="M1147.6,2543.243a25.776,25.776,0,0,0-4.794-2.826,32.9,32.9,0,0,0-5.21-1.92,33.579,33.579,0,0,0-5.439-.963,21.082,21.082,0,0,0-5.521.135l-.017-.064a14.146,14.146,0,0,1,5.588-.735,22.606,22.606,0,0,1,5.538,1.116,29.384,29.384,0,0,1,9.9,5.2Z" fill="#0064bc"/><path d="M1148.589,2554.549s-.419,1.6-.533,2.316c-.041.263,0,3.185-.985,3.334a3.787,3.787,0,0,1-3.267-1.632,9.79,9.79,0,0,1-.844-5.044,41.473,41.473,0,0,1,.694-5.725c-.22-.79-.718-2.672-7.919-2.406-1.468.054-9.641.811-12.372.175a4.4,4.4,0,0,1-3.047-2.132c-.406-1.051-.666-2.48.5-3.18s3.975-2.354,5.459-2.571c4.118-.6,8.43.379,12.338,1.469s7.561,3.245,9.225,6.023c1.923,3.212,1.272,5.866.75,9.373" fill="#005cb9"/><path d="M1145.6,2558.529c1.662-4.334,3.679-4.754,4.384-1.465,1.12,5.224-2.572,11.032-4.98,7.648C1144.407,2562.278,1145.6,2558.529,1145.6,2558.529Z" fill="#facc9c"/><path d="M1125.921,2538.823a15.59,15.59,0,0,1-1.943,1.4,13.486,13.486,0,0,0-1.88,1.4c-.267.239-.539.587-.45.782.1.222.509.367.865.462a19.171,19.171,0,0,0,2.343.351,9.125,9.125,0,0,1-2.415-.017,1.5,1.5,0,0,1-1.165-.639.812.812,0,0,1,.1-.754,2.52,2.52,0,0,1,.412-.5,10.984,10.984,0,0,1,2.011-1.368C1124.5,2539.538,1125.235,2539.226,1125.921,2538.823Z" fill="#0064bc"/><path d="M1146.781,2546.666a1.167,1.167,0,0,1,.359,1,5.162,5.162,0,0,1-.215,1.057,4.963,4.963,0,0,1-.353,1,4.068,4.068,0,0,1-.62.876l-.04-.019a5.134,5.134,0,0,1,.252-1.034c.111-.33.289-.63.427-.946a4.944,4.944,0,0,0,.329-.967,1.029,1.029,0,0,0-.172-.945Z" fill="#0064bc"/><path d="M1144.882,2676.4h-28.041a2.625,2.625,0,0,1-2.431-2l-9.382-43.589a1.57,1.57,0,0,1,1.57-2h28.041a2.626,2.626,0,0,1,2.431,2l9.382,43.589A1.57,1.57,0,0,1,1144.882,2676.4Z" fill="#fff"/><path d="M1144.011,2676.795H1115.5a2.67,2.67,0,0,1-2.473-2.034l-9.539-44.319a1.6,1.6,0,0,1,1.6-2.035H1133.6a2.671,2.671,0,0,1,2.472,2.035l9.539,44.319A1.6,1.6,0,0,1,1144.011,2676.795Z" fill="#005cb9"/><path d="M1145.975,2651l-7.709-.288a6.608,6.608,0,0,0-2.713.472l-3.978,1.6a3,3,0,0,0-1.639,4.057l1.6,3.45a3.228,3.228,0,0,0,3.7,1.739l4.411-1.093s8.28-.661,8.575-4.984Z" fill="#facb9c"/><path d="M1159.344,2597.654a12.855,12.855,0,0,1,9.64,7.285c5.812,12.531,14.666,28.959,15.976,34.59,1.825,7.842,2.5,11.638-4.358,14.57-3.13,1.338-32.9,6.122-32.9,6.122l-3.732-10.68,23.1-8.628-7.181-17.55-2.189-25.971Z" fill="#fff"/><path d="M1157.7,2597.392a16.281,16.281,0,0,0-3.128,3.826,8.484,8.484,0,0,0-.547,1.383,8.138,8.138,0,0,0-.235,1.366,13.091,13.091,0,0,0,.016,2.36c.06.672.144,1.213.2,1.586a4.44,4.44,0,0,1,.088.582,2.635,2.635,0,0,1-.165-.567,14.745,14.745,0,0,1-.27-1.586,12.227,12.227,0,0,1-.059-2.391,7.886,7.886,0,0,1,.23-1.4,8.21,8.21,0,0,1,.556-1.421A13.308,13.308,0,0,1,1157.7,2597.392Z" fill="#f1f5fb"/></g></svg>