<svg xmlns="http://www.w3.org/2000/svg" width="156.63" height="52.284" viewBox="0 0 156.63 52.284"><g transform="translate(-290.186 -6743.523)"><path d="M311.561,6795.718a1.759,1.759,0,0,0,1.107,0c19.912-6.7,21.245-22.239,21.337-24.047.087-1.693.013-13.576-.11-18.83a1.632,1.632,0,0,0-1.045-1.493c-3.3-1.288-13.843-5.4-20.171-7.722a1.6,1.6,0,0,0-1.128,0c-6.329,2.324-16.88,6.435-20.173,7.722a1.632,1.632,0,0,0-1.043,1.492c-.123,5.253-.2,17.138-.111,18.831C290.317,6773.479,291.65,6789.019,311.561,6795.718Z" fill="#005cb9"/><path d="M311.642,6791.916a1.51,1.51,0,0,0,.945,0c17.006-5.722,18.144-18.994,18.224-20.538.074-1.445.01-11.595-.1-16.082a1.393,1.393,0,0,0-.892-1.275c-2.814-1.1-11.823-4.61-17.228-6.6a1.368,1.368,0,0,0-.963,0c-5.4,1.985-14.416,5.5-17.229,6.6a1.393,1.393,0,0,0-.891,1.273c-.105,4.486-.168,14.638-.094,16.083C293.5,6772.922,294.636,6786.194,311.642,6791.916Z" fill="#f1f5fb"/><path d="M317.015,6769.588h-9.8v-4.9a4.9,4.9,0,1,1,9.8,0Zm-8.555-1.246h7.309v-3.654a3.655,3.655,0,1,0-7.309,0Z" fill="#00c420"/><rect width="13.371" height="11.268" rx="1.493" transform="translate(305.429 6767.652)" fill="#00c420"/><circle cx="1.285" cy="1.285" r="1.285" transform="translate(310.83 6771.288)" fill="#f1f5fb"/><path d="M312.115,6775.286h0a.636.636,0,0,1-.636-.636v-1.779h1.272v1.779A.636.636,0,0,1,312.115,6775.286Z" fill="#f1f5fb"/><path d="M353.736,6759.591H351.4v5.071h-1.586v-12.145h3.921c2.858,0,4.2,1.568,4.2,3.554C357.936,6757.918,356.751,6759.591,353.736,6759.591Zm0-1.307c1.812,0,2.579-.853,2.579-2.213,0-1.411-.767-2.248-2.579-2.248H351.4v4.461Z" fill="#4a4a49"/><path d="M367.085,6761.961h-5.3l-.975,2.7H359.14l4.391-12.076h1.829l4.374,12.076h-1.672Zm-2.648-7.423-2.2,6.134h4.391Z" fill="#4a4a49"/><path d="M382.752,6756.036h-1.9a3.874,3.874,0,0,0-3.694-2.23c-2.562,0-4.478,1.847-4.478,4.775a4.405,4.405,0,0,0,4.478,4.757,4.1,4.1,0,0,0,4.269-3.939h-4.844v-1.289h6.534v1.22a5.89,5.89,0,0,1-5.959,5.437,6.2,6.2,0,0,1,0-12.39A5.742,5.742,0,0,1,382.752,6756.036Z" fill="#4a4a49"/><path d="M390.718,6764.784a6.2,6.2,0,1,1,6.1-6.2A5.99,5.99,0,0,1,390.718,6764.784Zm0-1.377c2.561,0,4.478-1.864,4.478-4.826,0-2.98-1.917-4.827-4.478-4.827s-4.479,1.847-4.479,4.827C386.239,6761.543,388.156,6763.407,390.718,6763.407Z" fill="#4a4a49"/><path d="M404.556,6753.51h-1.673v-1.447h3.276v12.6h-1.6Z" fill="#4a4a49"/><path d="M413.27,6751.872c3.467,0,4.373,2.753,4.373,6.36,0,3.66-.906,6.43-4.373,6.43-3.486,0-4.392-2.77-4.392-6.43C408.878,6754.625,409.784,6751.872,413.27,6751.872Zm0,1.446c-2.492,0-2.824,2.3-2.824,4.914,0,2.718.332,4.984,2.824,4.984,2.474,0,2.805-2.266,2.805-4.984C416.075,6755.618,415.744,6753.318,413.27,6753.318Z" fill="#4a4a49"/><path d="M424.214,6751.872c3.468,0,4.373,2.753,4.373,6.36,0,3.66-.9,6.43-4.373,6.43-3.485,0-4.391-2.77-4.391-6.43C419.823,6754.625,420.729,6751.872,424.214,6751.872Zm0,1.446c-2.492,0-2.823,2.3-2.823,4.914,0,2.718.331,4.984,2.823,4.984,2.474,0,2.806-2.266,2.806-4.984C427.02,6755.618,426.688,6753.318,424.214,6753.318Z" fill="#4a4a49"/><path d="M437.616,6752.308a2.606,2.606,0,1,1-2.544,2.6A2.428,2.428,0,0,1,437.616,6752.308Zm-1.272,2.6c0,1.08.505,1.638,1.272,1.638s1.289-.558,1.289-1.638c0-1.1-.522-1.621-1.289-1.621S436.344,6753.806,436.344,6754.9Zm7.336-2.4h1.568l-7.057,12.163h-1.568Zm.61,7.145a2.614,2.614,0,1,1-2.544,2.614A2.428,2.428,0,0,1,444.29,6759.644Zm-1.307,2.614c0,1.08.523,1.6,1.289,1.6s1.29-.522,1.29-1.6c0-1.1-.523-1.621-1.29-1.621S442.983,6761.159,442.983,6762.258Z" fill="#4a4a49"/><path d="M355.845,6786.765c-3.684,0-6.563-1.83-6.685-5.295H353.6a1.964,1.964,0,0,0,2.122,1.952c1.22,0,2-.61,2-1.61,0-3.172-8.564-1.464-8.515-7.54,0-3.245,2.659-5.05,6.246-5.05,3.733,0,6.246,1.854,6.417,5.124h-4.514a1.855,1.855,0,0,0-1.976-1.782,1.519,1.519,0,0,0-1.757,1.562c0,2.977,8.466,1.635,8.466,7.368C362.091,6784.373,359.847,6786.765,355.845,6786.765Z" fill="#005cb9"/><path d="M375.145,6772.809h-6.319v3.464h5.587v3.221h-5.587v3.757h6.319v3.343H364.653v-17.128h10.492Z" fill="#005cb9"/><path d="M393.834,6774.883h-4.611a3.586,3.586,0,0,0-3.367-1.757c-2.684,0-4.465,1.9-4.465,4.88,0,3.171,1.805,5.025,4.806,5.025a4.1,4.1,0,0,0,4.148-3.025h-5.294v-3.074h9.076v3.88a8.724,8.724,0,1,1-8.271-11.541C389.955,6769.271,392.932,6771.369,393.834,6774.883Z" fill="#005cb9"/><path d="M396.372,6769.466h4.172v10.247c0,2.025,1,3.2,2.977,3.2s3.025-1.171,3.025-3.2v-10.247h4.172v10.222c0,4.734-3.318,7.077-7.271,7.077-3.977,0-7.075-2.343-7.075-7.077Z" fill="#005cb9"/><path d="M420.648,6769.466c4.2,0,6.295,2.415,6.295,5.392a4.986,4.986,0,0,1-3.806,4.953l3.953,6.783h-4.709l-3.563-6.466h-1v6.466h-4.172v-17.128Zm-.244,3.465h-2.586v4.245H420.4c1.562,0,2.294-.8,2.294-2.148C422.7,6773.76,421.966,6772.931,420.4,6772.931Z" fill="#005cb9"/><path d="M437.655,6786.765a8.771,8.771,0,1,1,8.759-8.784A8.617,8.617,0,0,1,437.655,6786.765Zm0-3.807c2.732,0,4.513-1.976,4.513-4.977,0-3.05-1.781-4.977-4.513-4.977-2.782,0-4.539,1.927-4.539,4.977C433.116,6780.982,434.873,6782.958,437.655,6782.958Z" fill="#005cb9"/></g></svg>